<svg width="64" height="64" viewBox="0 0 64 64" fill="none" xmlns="http://www.w3.org/2000/svg">
  <defs>
    <linearGradient id="tile" x1="0" y1="0" x2="64" y2="64" gradientUnits="userSpaceOnUse">
      <stop stop-color="#151a2c"/>
      <stop offset="0.5" stop-color="#0b0e1a"/>
      <stop offset="1" stop-color="#04050b"/>
    </linearGradient>
    <linearGradient id="sheen" x1="0" y1="0" x2="64" y2="64" gradientUnits="userSpaceOnUse">
      <stop stop-color="#ffffff" stop-opacity="0.10"/>
      <stop offset="0.45" stop-color="#ffffff" stop-opacity="0"/>
    </linearGradient>
    <linearGradient id="edge" x1="0" y1="0" x2="64" y2="64" gradientUnits="userSpaceOnUse">
      <stop stop-color="#ffffff" stop-opacity="0.42"/>
      <stop offset="0.5" stop-color="#7ea0ff" stop-opacity="0.18"/>
      <stop offset="1" stop-color="#ffffff" stop-opacity="0.06"/>
    </linearGradient>
    <linearGradient id="silver" x1="14" y1="10" x2="52" y2="54" gradientUnits="userSpaceOnUse">
      <stop stop-color="#ffffff"/>
      <stop offset="0.5" stop-color="#d9deea"/>
      <stop offset="1" stop-color="#9aa3b8"/>
    </linearGradient>
    <linearGradient id="liquid" x1="0" y1="43" x2="0" y2="53.5" gradientUnits="userSpaceOnUse">
      <stop stop-color="#5f8bff"/>
      <stop offset="1" stop-color="#2748e6"/>
    </linearGradient>
    <!-- The flask silhouette doubles as the numeral "1". -->
    <path id="flask" d="M13 10.5H26C26.8 10.5 27.5 11.2 27.5 12S26.8 13.5 26 13.5H23.5V29.4L33 47C34.6 50 32.5 53.5 29.1 53.5H9.9C6.5 53.5 4.4 50 6 47L15.5 29.4V13.5H13C12.2 13.5 11.5 12.8 11.5 12S12.2 10.5 13 10.5Z"/>
    <clipPath id="flask-clip"><use href="#flask"/></clipPath>
  </defs>

  <rect width="64" height="64" rx="14" fill="url(#tile)"/>
  <rect width="64" height="64" rx="14" fill="url(#sheen)"/>

  <!-- "1" as flask -->
  <use href="#flask" fill="url(#silver)"/>
  <g clip-path="url(#flask-clip)">
    <rect x="0" y="43" width="40" height="12" fill="url(#liquid)"/>
  </g>

  <!-- "7" -->
  <path d="M35 10.5H58V17.5L45.2 53.5H36.6L48.6 18H35Z" fill="url(#silver)"/>
</svg>
